<mxfile host="app.diagrams.net" agent="Mozilla/5.0 (X11; Linux x86_64; rv:133.0) Gecko/20100101 Firefox/133.0" version="26.0.2">
  <diagram name="Page-1" id="3V8vz6xEhUbXwEFhNSxs">
    <mxGraphModel dx="2261" dy="1929" grid="1" gridSize="10" guides="1" tooltips="1" connect="1" arrows="1" fold="1" page="1" pageScale="1" pageWidth="827" pageHeight="1169" math="0" shadow="0">
      <root>
        <mxCell id="0" />
        <mxCell id="1" parent="0" />
        <mxCell id="BuL4cJ5vDAZep0cfOdnn-6" style="edgeStyle=orthogonalEdgeStyle;rounded=1;orthogonalLoop=1;jettySize=auto;html=1;curved=0;" parent="1" source="BuL4cJ5vDAZep0cfOdnn-1" target="BuL4cJ5vDAZep0cfOdnn-3" edge="1">
          <mxGeometry relative="1" as="geometry" />
        </mxCell>
        <mxCell id="BuL4cJ5vDAZep0cfOdnn-7" value="&lt;div&gt;Keyboard,&lt;/div&gt;&lt;div&gt;Mouse,&lt;/div&gt;&lt;div&gt;Touchpad,&lt;/div&gt;&lt;div&gt;Screen&lt;br&gt;&lt;/div&gt;" style="edgeLabel;html=1;align=center;verticalAlign=middle;resizable=0;points=[];" parent="BuL4cJ5vDAZep0cfOdnn-6" vertex="1" connectable="0">
          <mxGeometry x="0.0099" y="-1" relative="1" as="geometry">
            <mxPoint as="offset" />
          </mxGeometry>
        </mxCell>
        <mxCell id="BuL4cJ5vDAZep0cfOdnn-1" value="User" style="shape=umlActor;verticalLabelPosition=bottom;verticalAlign=top;html=1;" parent="1" vertex="1">
          <mxGeometry x="120" width="30" height="60" as="geometry" />
        </mxCell>
        <mxCell id="BuL4cJ5vDAZep0cfOdnn-2" value="StudyCourse Deployment View" style="shape=umlFrame;whiteSpace=wrap;html=1;pointerEvents=0;width=200;height=20;" parent="1" vertex="1">
          <mxGeometry x="-100" y="-10" width="730" height="570" as="geometry" />
        </mxCell>
        <mxCell id="BuL4cJ5vDAZep0cfOdnn-180" value="" style="group" parent="1" vertex="1" connectable="0">
          <mxGeometry x="-80" y="170" width="430" height="370" as="geometry" />
        </mxCell>
        <mxCell id="BuL4cJ5vDAZep0cfOdnn-3" value="&lt;div&gt;&amp;lt;&amp;lt;device&amp;gt;&amp;gt;&lt;/div&gt;&lt;div&gt;User&#39;s Device&lt;/div&gt;" style="verticalAlign=top;align=left;spacingTop=8;spacingLeft=2;spacingRight=12;shape=cube;size=10;direction=south;fontStyle=4;html=1;whiteSpace=wrap;" parent="BuL4cJ5vDAZep0cfOdnn-180" vertex="1">
          <mxGeometry width="430" height="370" as="geometry" />
        </mxCell>
        <mxCell id="BuL4cJ5vDAZep0cfOdnn-5" value="&lt;div&gt;&amp;lt;&amp;lt;executionEnviroment&amp;gt;&amp;gt;&lt;/div&gt;&lt;div&gt;Browser&lt;br&gt;&lt;/div&gt;" style="verticalAlign=top;align=left;spacingTop=8;spacingLeft=2;spacingRight=12;shape=cube;size=10;direction=south;fontStyle=4;html=1;whiteSpace=wrap;" parent="BuL4cJ5vDAZep0cfOdnn-180" vertex="1">
          <mxGeometry x="10" y="50" width="400" height="310" as="geometry" />
        </mxCell>
        <mxCell id="BuL4cJ5vDAZep0cfOdnn-8" value="&lt;div&gt;&amp;lt;&amp;lt;artifact&amp;gt;&amp;gt;&lt;/div&gt;&lt;div&gt;StudyCourse Frontend&lt;br&gt;&lt;/div&gt;" style="verticalAlign=top;align=left;spacingTop=8;spacingLeft=2;spacingRight=12;shape=cube;size=10;direction=south;fontStyle=4;html=1;whiteSpace=wrap;" parent="BuL4cJ5vDAZep0cfOdnn-180" vertex="1">
          <mxGeometry x="20" y="95" width="370" height="255" as="geometry" />
        </mxCell>
        <mxCell id="BuL4cJ5vDAZep0cfOdnn-9" value="«component»&lt;br&gt;&lt;b&gt;shared/ (services)&lt;/b&gt;" style="html=1;dropTarget=0;whiteSpace=wrap;" parent="BuL4cJ5vDAZep0cfOdnn-180" vertex="1">
          <mxGeometry x="220" y="260" width="150" height="70" as="geometry" />
        </mxCell>
        <mxCell id="BuL4cJ5vDAZep0cfOdnn-10" value="" style="shape=module;jettyWidth=8;jettyHeight=4;" parent="BuL4cJ5vDAZep0cfOdnn-9" vertex="1">
          <mxGeometry x="1" width="20" height="20" relative="1" as="geometry">
            <mxPoint x="-27" y="7" as="offset" />
          </mxGeometry>
        </mxCell>
        <mxCell id="BuL4cJ5vDAZep0cfOdnn-13" style="edgeStyle=orthogonalEdgeStyle;rounded=0;orthogonalLoop=1;jettySize=auto;html=1;entryX=0;entryY=0.5;entryDx=0;entryDy=0;dashed=1;" parent="BuL4cJ5vDAZep0cfOdnn-180" source="BuL4cJ5vDAZep0cfOdnn-11" target="BuL4cJ5vDAZep0cfOdnn-9" edge="1">
          <mxGeometry relative="1" as="geometry" />
        </mxCell>
        <mxCell id="BuL4cJ5vDAZep0cfOdnn-11" value="&lt;div&gt;«component»&lt;/div&gt;&lt;b&gt;app/ (UI)&lt;/b&gt; " style="html=1;dropTarget=0;whiteSpace=wrap;" parent="BuL4cJ5vDAZep0cfOdnn-180" vertex="1">
          <mxGeometry x="30" y="155" width="150" height="70" as="geometry" />
        </mxCell>
        <mxCell id="BuL4cJ5vDAZep0cfOdnn-12" value="" style="shape=module;jettyWidth=8;jettyHeight=4;" parent="BuL4cJ5vDAZep0cfOdnn-11" vertex="1">
          <mxGeometry x="1" width="20" height="20" relative="1" as="geometry">
            <mxPoint x="-27" y="7" as="offset" />
          </mxGeometry>
        </mxCell>
        <mxCell id="BuL4cJ5vDAZep0cfOdnn-16" value="&lt;div&gt;&amp;lt;&amp;lt;artifact&amp;gt;&amp;gt;&lt;/div&gt;&lt;div&gt;StudyBase&lt;br&gt;&lt;/div&gt;" style="verticalAlign=top;align=left;spacingTop=8;spacingLeft=2;spacingRight=12;shape=cube;size=10;direction=south;fontStyle=4;html=1;whiteSpace=wrap;" parent="1" vertex="1">
          <mxGeometry x="420" y="250" width="200" height="137.5" as="geometry" />
        </mxCell>
        <mxCell id="BuL4cJ5vDAZep0cfOdnn-187" style="edgeStyle=orthogonalEdgeStyle;rounded=0;orthogonalLoop=1;jettySize=auto;html=1;startArrow=classic;startFill=1;" parent="1" source="BuL4cJ5vDAZep0cfOdnn-9" target="BuL4cJ5vDAZep0cfOdnn-16" edge="1">
          <mxGeometry relative="1" as="geometry" />
        </mxCell>
        <mxCell id="BuL4cJ5vDAZep0cfOdnn-189" value="HTTP/HTTPS" style="edgeLabel;html=1;align=center;verticalAlign=middle;resizable=0;points=[];" parent="BuL4cJ5vDAZep0cfOdnn-187" vertex="1" connectable="0">
          <mxGeometry x="0.2753" y="-1" relative="1" as="geometry">
            <mxPoint x="7" y="-21" as="offset" />
          </mxGeometry>
        </mxCell>
      </root>
    </mxGraphModel>
  </diagram>
</mxfile>
